<?xml version="1.0" encoding="utf-8"?>
<!-- Generator: Adobe Illustrator 23.0.3, SVG Export Plug-In . SVG Version: 6.00 Build 0)  -->
<svg version="1.1" id="Layer_1" xmlns="http://www.w3.org/2000/svg" xmlns:xlink="http://www.w3.org/1999/xlink" x="0px" y="0px"
	 viewBox="0 0 200 53" style="enable-background:new 0 0 200 53;" xml:space="preserve">
<style type="text/css">
	.st0{fill:#0072FC;}
	.st1{fill:none;stroke:#0072FC;stroke-width:2;stroke-miterlimit:10;}
</style>
<path class="st0" d="M2.1,26.5l10.3,10.3l0,0c18.6-0.1,18.5-6.4,37.1-6.5c18.6-0.1,18.6,6.1,37.2,6c18.6-0.1,18.5-6.4,37.1-6.5
	c18.6-0.1,18.6,6.1,37.2,6s18.5-6.4,37.1-6.5l0,0l-0.1-20.9l0,0c-18.5,0.1-18.5,6.4-37,6.5c-18.5,0.1-18.5-6.1-37.1-6
	c-18.5,0.1-18.5,6.4-37,6.5c-18.5,0.1-18.6-6.1-37.1-6c-18.5,0.1-18.5,6.4-37,6.5l0,0L2.1,26.5"/>
<polyline class="st1" points="26.2,2.4 2.1,26.5 26.5,51 "/>
</svg>
