<?xml version="1.0" encoding="utf-8"?>
<!-- Generator: Adobe Illustrator 23.0.3, SVG Export Plug-In . SVG Version: 6.00 Build 0)  -->
<svg version="1.1" id="Layer_1" xmlns="http://www.w3.org/2000/svg" xmlns:xlink="http://www.w3.org/1999/xlink" x="0px" y="0px"
	 viewBox="0 0 108 50" style="enable-background:new 0 0 108 50;" xml:space="preserve">
<style type="text/css">
	.st0{fill:none;stroke:#000000;stroke-width:2;stroke-miterlimit:10;}
	.st1{fill:#FFFF03;}
</style>
<g>
	<path class="st0" d="M41.3,11.4c2.2-2.5,2-6.3-0.5-8.6s-6.3-2-8.6,0.5"/>
	<line class="st0" x1="8" y1="27.6" x2="32.3" y2="3.3"/>
	<circle class="st1" cx="15.1" cy="34.3" r="14.8"/>
	<circle class="st1" cx="56.9" cy="34.3" r="14.8"/>
	<path class="st0" d="M42.1,35c0-3.4-2.7-6.1-6.1-6.1s-6.1,2.7-6.1,6.1"/>
	<path class="st0" d="M105.1,18.1c2.2-2.5,2-6.3-0.5-8.6s-6.3-2-8.6,0.5"/>
	<line class="st0" x1="71.8" y1="34.3" x2="96" y2="10"/>
</g>
<path d="M21.3,42.1H8.9c-0.6,0-1.2-0.5-1.2-1.2v-9.8c0-0.6,0.5-1.2,1.2-1.2h12.4c0.6,0,1.2,0.5,1.2,1.2v9.8
	C22.5,41.6,22,42.1,21.3,42.1z"/>
<path d="M63.1,42.1H50.7c-0.6,0-1.2-0.5-1.2-1.2v-1.6c0-0.6,0.5-1.2,1.2-1.2h12.4c0.6,0,1.2,0.5,1.2,1.2v1.6
	C64.3,41.6,63.8,42.1,63.1,42.1z"/>
<line class="st0" x1="6.2" y1="26.4" x2="10.7" y2="32.3"/>
<line class="st0" x1="23.8" y1="26.4" x2="19.3" y2="32.3"/>
<line class="st0" x1="15" y1="25.5" x2="15" y2="31.4"/>
<line class="st0" x1="48.2" y1="34.3" x2="52.7" y2="40.2"/>
<line class="st0" x1="65.8" y1="34.3" x2="61.3" y2="40.2"/>
<line class="st0" x1="57" y1="33.4" x2="57" y2="39.2"/>
</svg>
