<?xml version="1.0" encoding="utf-8"?>
<!-- Generator: Adobe Illustrator 23.0.3, SVG Export Plug-In . SVG Version: 6.00 Build 0)  -->
<svg version="1.1" id="Layer_1" xmlns="http://www.w3.org/2000/svg" xmlns:xlink="http://www.w3.org/1999/xlink" x="0px" y="0px"
	 viewBox="0 0 108 50" style="enable-background:new 0 0 108 50;" xml:space="preserve">
<style type="text/css">
	.st0{fill:none;stroke:#000000;stroke-width:2;stroke-miterlimit:10;}
	.st1{fill:#FFFF03;}
</style>
<g>
	<g>
		<path class="st0" d="M41.34,11.43c2.23-2.51,2-6.34-0.5-8.57s-6.34-2-8.57,0.5"/>
		<line class="st0" x1="8.04" y1="27.59" x2="32.32" y2="3.3"/>
		<circle class="st1" cx="15.1" cy="34.3" r="14.84"/>
		<circle class="st1" cx="56.92" cy="34.3" r="14.84"/>
		<path class="st0" d="M42.08,34.98c0-3.35-2.72-6.07-6.07-6.07s-6.07,2.72-6.07,6.07"/>
		<path class="st0" d="M105.06,18.15c2.23-2.51,2-6.34-0.5-8.57s-6.34-2-8.57,0.5"/>
		<line class="st0" x1="71.76" y1="34.3" x2="96.04" y2="10.02"/>
	</g>
	<path d="M21.31,42.1H8.89c-0.64,0-1.16-0.52-1.16-1.16v-1.58c0-0.64,0.52-1.16,1.16-1.16h12.42c0.64,0,1.16,0.52,1.16,1.16v1.58
		C22.47,41.58,21.95,42.1,21.31,42.1z"/>
	<path d="M63.13,42.1H50.71c-0.64,0-1.16-0.52-1.16-1.16v-1.58c0-0.64,0.52-1.16,1.16-1.16h12.42c0.64,0,1.16,0.52,1.16,1.16v1.58
		C64.29,41.58,63.77,42.1,63.13,42.1z"/>
	<line class="st0" x1="6.22" y1="34.3" x2="10.72" y2="40.15"/>
	<line class="st0" x1="23.83" y1="34.3" x2="19.32" y2="40.15"/>
	<line class="st0" x1="15.02" y1="33.39" x2="15.02" y2="39.25"/>
	<line class="st0" x1="48.19" y1="34.3" x2="52.7" y2="40.15"/>
	<line class="st0" x1="65.8" y1="34.3" x2="61.3" y2="40.15"/>
	<line class="st0" x1="57" y1="33.39" x2="57" y2="39.25"/>
</g>
</svg>
