<?xml version="1.0" encoding="utf-8"?>
<!-- Generator: Adobe Illustrator 23.0.3, SVG Export Plug-In . SVG Version: 6.00 Build 0)  -->
<svg version="1.1" id="Layer_1" xmlns="http://www.w3.org/2000/svg" xmlns:xlink="http://www.w3.org/1999/xlink" x="0px" y="0px"
	 viewBox="0 0 48.3 55.4" style="enable-background:new 0 0 48.3 55.4;" xml:space="preserve">
<style type="text/css">
	.st0{fill:#FF4CD0;}
	.st1{fill:none;stroke:#000000;stroke-width:2;stroke-miterlimit:10;}
</style>
<g>
	<path class="st0" d="M23.1,0C-2.2,0.5,0.1,22.6,0.1,22.6l2,16.7c0.4,3.7,3.3,6.6,6.8,7.3c0.9,0.2,1.6,0.9,1.6,1.8v4.5
		c0,1.4,1.1,2.5,2.5,2.5h9.3h3.3h9.7c1.4,0,2.5-1.1,2.5-2.5v-4.5c0-0.9,0.7-1.7,1.6-1.8c3.6-0.7,6.4-3.6,6.8-7.3l2-16.7
		C48.2,22.6,50.8,0.5,23.1,0z M27,43.1h-5.9c-0.5,0-0.8-0.5-0.6-0.9l2.9-7.9c0.2-0.6,1.1-0.6,1.3,0l2.9,7.9
		C27.8,42.6,27.5,43.1,27,43.1z M14.1,35.5c-3.9,0.2-7.1-3-6.8-6.8c0.2-3.2,2.8-5.8,6-6c3.9-0.2,7.1,3,6.8,6.8
		C19.9,32.7,17.3,35.3,14.1,35.5z M34.9,35.5c-3.9,0.2-7.1-3-6.8-6.8c0.2-3.2,2.8-5.8,6-6c3.9-0.2,7.1,3,6.8,6.8
		C40.7,32.7,38.1,35.3,34.9,35.5z"/>
	<g>
		<g>
			<g>
				<path class="st1" d="M14.9,48.4c0,0.7-0.7,0.7-0.7,1.4c0,0.7,0.7,0.7,0.7,1.4c0,0.7-0.7,0.7-0.7,1.4c0,0.7,0.7,0.7,0.7,1.4
					c0,0.7-0.7,0.7-0.7,1.4"/>
			</g>
			<g>
				<path class="st1" d="M19.7,48.4c0,0.7-0.7,0.7-0.7,1.4c0,0.7,0.7,0.7,0.7,1.4c0,0.7-0.7,0.7-0.7,1.4c0,0.7,0.7,0.7,0.7,1.4
					c0,0.7-0.7,0.7-0.7,1.4"/>
			</g>
			<g>
				<path class="st1" d="M24.4,48.4c0,0.7-0.7,0.7-0.7,1.4c0,0.7,0.7,0.7,0.7,1.4c0,0.7-0.7,0.7-0.7,1.4c0,0.7,0.7,0.7,0.7,1.4
					c0,0.7-0.7,0.7-0.7,1.4"/>
			</g>
			<g>
				<path class="st1" d="M29.2,48.4c0,0.7-0.7,0.7-0.7,1.4c0,0.7,0.7,0.7,0.7,1.4c0,0.7-0.7,0.7-0.7,1.4c0,0.7,0.7,0.7,0.7,1.4
					c0,0.7-0.7,0.7-0.7,1.4"/>
			</g>
			<g>
				<path class="st1" d="M33.9,48.4c0,0.7-0.7,0.7-0.7,1.4c0,0.7,0.7,0.7,0.7,1.4c0,0.7-0.7,0.7-0.7,1.4c0,0.7,0.7,0.7,0.7,1.4
					c0,0.7-0.7,0.7-0.7,1.4"/>
			</g>
		</g>
	</g>
</g>
</svg>
